<?xml version="1.0" encoding="UTF-8"?>
<svg fill="#FFFFFF" width="100pt" height="100pt" version="1.1" viewBox="0 0 100 100" xmlns="http://www.w3.org/2000/svg">
 <g>
  <path d="m65.418 25.625c3.75 6.457 7.918 13.75 11.25 19.375-10.625 4.168-16.875 10.418-22.707 16.25-5.625 5.625-10.418 10.418-19.375 13.332-2.918-5-7.293-12.707-11.25-19.375 10.625-4.168 16.875-10.418 22.707-16.25 5.625-5.625 10.414-10.625 19.375-13.332m4.1641-9.582c-30.414 5.625-28.332 28.332-58.75 33.957 0 0 19.582 33.957 19.582 33.957 30.418-5.625 28.336-28.332 58.754-33.957l-19.586-33.957z"/>
  <path d="m57.832 45.609c3.9141 6.7773 3.6914 14.227-0.49219 16.645-4.1875 2.4141-10.75-1.1172-14.664-7.8945-3.9102-6.7773-3.6875-14.227 0.49609-16.645 4.1836-2.4141 10.75 1.1172 14.66 7.8945"/>
 </g>
</svg>
