<?xml version="1.0" encoding="UTF-8"?>
<svg fill="#FFFFFF" width="100pt" height="100pt" version="1.1" viewBox="0 0 100 100" xmlns="http://www.w3.org/2000/svg">
 <path d="m66.668 25c-8.543 0-16.668-8.332-16.668-8.332s-8.125 8.332-16.668 8.332c-8.125 0-12.5-6.25-12.5-6.25v39.582c0 18.957 16.668 12.5 29.168 25 12.5-12.5 29.168-6.043 29.168-25v-39.582s-4.375 6.25-12.5 6.25zm-3.9609 41.668c-3.75 1.25-8.125 2.918-12.5 5.832l-0.20703-0.20703v-22.293h-20.832v-17.082c1.25 0.20703 2.707 0.41797 4.168 0.41797 6.457 0 12.5-3.125 16.668-5.832l-0.003906 22.496h20.832v8.332c0 5.625-0.83203 5.8359-8.125 8.3359z"/>
</svg>
