<?xml version="1.0" encoding="UTF-8"?>
<svg width="16px" height="16px" viewBox="0 0 16 16" version="1.1" xmlns="http://www.w3.org/2000/svg" xmlns:xlink="http://www.w3.org/1999/xlink">
    <!-- Generator: Sketch 53.2 (72643) - https://sketchapp.com -->
    <title>Search_icon</title>
    <desc>Created with Sketch.</desc>
    <g id="Page-1" stroke="none" stroke-width="1" fill="none" fill-rule="evenodd">
        <g id="Guide-Trips" transform="translate(-269.000000, -52.000000)" fill="#000000" fill-rule="nonzero">
            <g id="Header" transform="translate(0.000000, 35.000000)">
                <g id="Search_bar" transform="translate(253.000000, 5.000000)">
                    <path d="M31.9,26.5 L28.6,23.2 C29.5188905,21.9936615 30.0113093,20.5164051 30,19 C30.0115325,17.1399731 29.2777385,15.3527873 27.9624756,14.0375244 C26.6472127,12.7222615 24.8600269,11.9884675 23,12 C21.1399731,11.9884675 19.3527873,12.7222615 18.0375244,14.0375244 C16.7222615,15.3527873 15.9884675,17.1399731 16,19 C15.9884675,20.8600269 16.7222615,22.6472127 18.0375244,23.9624756 C19.3527873,25.2777385 21.1399731,26.0115325 23,26 C24.5164051,26.0113093 25.9936615,25.5188905 27.2,24.6 L30.5,27.9 L31.9,26.5 Z M18,19 C17.9867696,17.6699057 18.5093042,16.3904346 19.4498694,15.4498694 C20.3904346,14.5093042 21.6699057,13.9867696 23,14 C24.3300943,13.9867696 25.6095654,14.5093042 26.5501306,15.4498694 C27.4906958,16.3904346 28.0132304,17.6699057 28,19 C28.0132304,20.3300943 27.4906958,21.6095654 26.5501306,22.5501306 C25.6095654,23.4906958 24.3300943,24.0132304 23,24 C21.6699057,24.0132304 20.3904346,23.4906958 19.4498694,22.5501306 C18.5093042,21.6095654 17.9867696,20.3300943 18,19 L18,19 Z" id="Search_icon"></path>
                </g>
            </g>
        </g>
    </g>
</svg>