<?xml version="1.0" encoding="UTF-8"?>
<svg fill="#FFFFFF" width="100pt" height="100pt" version="1.1" viewBox="0 0 100 100" xmlns="http://www.w3.org/2000/svg">
 <g>
  <path d="m83.332 62.5h-47.707c-0.20703-0.41797-0.41797-1.25 0-2.082 0.625-1.875 2.707-3.332 6.25-4.168l37.918-4.168c2.082-0.20703 3.543-2.082 3.543-4.168v-18.75c0-2.293-1.875-4.168-4.168-4.168l-51.25 0.003906-0.83594-5c-0.41406-1.875-2.082-3.332-4.1641-3.332h-6.25c-2.293 0-4.168 1.875-4.168 4.168 0 2.293 1.875 4.168 4.168 4.168h2.918l7.707 38.543v0.20703c0.83203 4.168 3.957 6.875 7.5 6.875l48.539-0.003906c2.293 0 4.168-1.875 4.168-4.168 0-2.2891-1.875-3.957-4.168-3.957zm-41.664-14.582v-14.582h8.332v13.543zm12.5-14.586h8.332v12.293l-8.332 0.83203zm20.832 10.836l-8.332 0.83203v-11.668h8.332zm-37.5-10.836v15.418c-1.668 0.625-3.125 1.25-4.375 2.082l-3.332-17.5z"/>
  <path d="m31.25 81.25c0 3.4531-2.7969 6.25-6.25 6.25s-6.25-2.7969-6.25-6.25 2.7969-6.25 6.25-6.25 6.25 2.7969 6.25 6.25"/>
  <path d="m81.25 81.25c0 3.4531-2.7969 6.25-6.25 6.25s-6.25-2.7969-6.25-6.25 2.7969-6.25 6.25-6.25 6.25 2.7969 6.25 6.25"/>
 </g>
</svg>
