<?xml version="1.0" encoding="UTF-8"?>
<svg fill="#FFFFFF" width="100pt" height="100pt" version="1.1" viewBox="0 0 100 100" xmlns="http://www.w3.org/2000/svg">
 <path d="m83.332 54.168v-8.332l-9.168-1.875c0-0.41797-0.20703-0.625-0.20703-1.043l6.875-6.043-4.168-7.293-8.75 2.918c-0.20703-0.20703-0.41797-0.41797-0.625-0.625l2.918-8.75-7.293-4.168-6.043 6.875c-0.41797 0-0.625-0.20703-1.043-0.20703l-1.6602-8.957h-8.332l-1.875 9.168c-0.41797 0-0.625 0.20703-1.043 0.20703l-6.043-6.875-7.293 4.168 2.918 8.75c-0.20703 0.20703-0.41797 0.41797-0.625 0.625l-8.75-2.918-4.168 7.293 6.875 6.043c0 0.41797-0.20703 0.625-0.20703 1.043l-8.957 1.6602v8.332l9.168 1.875c0 0.41797 0.20703 0.625 0.20703 1.043l-6.875 6.043 4.168 7.293 8.75-2.918c0.20703 0.20703 0.41797 0.41797 0.625 0.625l-2.918 8.75 7.293 4.168 6.043-6.875c0.41797 0 0.625 0.20703 1.043 0.20703l1.6602 8.957h8.332l1.875-9.168c0.41797 0 0.625-0.20703 1.043-0.20703l6.043 6.875 7.293-4.168-2.918-8.75c0.20703-0.20703 0.41797-0.41797 0.625-0.625l8.75 2.918 4.168-7.293-6.875-6.043c0-0.41797 0.20703-0.625 0.20703-1.043zm-20.832-4.168c0 6.875-5.625 12.5-12.5 12.5s-12.5-5.625-12.5-12.5 5.625-12.5 12.5-12.5 12.5 5.625 12.5 12.5z"/>
</svg>
